<?xml version="1.0" encoding="UTF-8" standalone="no"?>
<svg
   version="1.1"
   width="645.83331pt"
   height="243.74998pt"
   viewBox="0 0 645.8333 243.74999"
   id="svg59"
   sodipodi:docname="小胡游记 - 副本.svg"
   inkscape:export-filename="小胡游记 - 副本.svg"
   inkscape:export-xdpi="96"
   inkscape:export-ydpi="96"
   inkscape:version="1.4 (86a8ad7, 2024-10-11)"
   xmlns:inkscape="http://www.inkscape.org/namespaces/inkscape"
   xmlns:sodipodi="http://sodipodi.sourceforge.net/DTD/sodipodi-0.dtd"
   xmlns:xlink="http://www.w3.org/1999/xlink"
   xmlns="http://www.w3.org/2000/svg"
   xmlns:svg="http://www.w3.org/2000/svg">
  <defs
     id="defs59" />
  <sodipodi:namedview
     id="namedview59"
     pagecolor="#ffffff"
     bordercolor="#000000"
     borderopacity="0.25"
     inkscape:showpageshadow="2"
     inkscape:pageopacity="0.0"
     inkscape:pagecheckerboard="0"
     inkscape:deskcolor="#d1d1d1"
     inkscape:document-units="pt"
     inkscape:export-bgcolor="#ffffff00"
     inkscape:zoom="1.1659355"
     inkscape:cx="460.14551"
     inkscape:cy="161.67275"
     inkscape:window-width="2160"
     inkscape:window-height="1334"
     inkscape:window-x="-11"
     inkscape:window-y="-11"
     inkscape:window-maximized="1"
     inkscape:current-layer="g58">
    <inkscape:page
       x="0"
       y="0"
       width="645.83331"
       height="243.75"
       id="page2"
       margin="0"
       bleed="0" />
  </sodipodi:namedview>
  <g
     enable-background="new"
     id="g59">
    <g
       id="g58">
      <clipPath
         id="cp0">
        <path
           transform="scale(0.6666666)"
           d="M 0,0 H 968.75 V 365.625 H 0 Z"
           fill-rule="evenodd"
           id="path1" />
      </clipPath>
      <clipPath
         id="cp1">
        <path
           transform="scale(0.6666666)"
           d="M 0,0 H 968.75 V 365.625 H 0 Z"
           fill-rule="evenodd"
           id="path3" />
      </clipPath>
      <g
         clip-path="url(#cp1)"
         id="g47">
        <g
           opacity="0.6"
           id="g6">
          <clipPath
             id="cp2">
            <path
               transform="matrix(0.6666666,0,0,0.6666666,0,203.99999)"
               d="M 0,0 H 138 V 4 H 0 Z"
               fill-rule="evenodd"
               id="path4" />
          </clipPath>
          <g
             clip-path="url(#cp2)"
             id="g5">
            <path
               transform="matrix(2.0833333,0,0,2.0833333,0,204.18416)"
               stroke-width="1"
               stroke-linecap="butt"
               stroke-miterlimit="4"
               stroke-linejoin="miter"
               fill="none"
               stroke="#333333"
               d="M 0,0.5 H 42.555814"
               id="path5"
               style="display:inline" />
          </g>
        </g>
        <g
           opacity="0.6"
           id="g8">
          <clipPath
             id="cp3">
            <path
               transform="matrix(0.6666666,0,0,0.6666666,552.6666,207.99999)"
               d="M 0,0 H 140 V 4 H 0 Z"
               fill-rule="evenodd"
               id="path6" />
          </clipPath>
          <g
             clip-path="url(#cp3)"
             id="g7">
            <path
               transform="matrix(2.0833333,0,0,2.0833333,555.3246,208.42746)"
               stroke-width="1"
               stroke-linecap="butt"
               stroke-miterlimit="4"
               stroke-linejoin="miter"
               fill="none"
               stroke="#333333"
               d="M 0,0.5 H 42.555814"
               id="path7" />
          </g>
        </g>
        <g
           id="Layer-1"
           data-name="H1">
          <g
             id="Layer-2"
             data-name="P" />
          <symbol
             id="font_4_2c6f">
            <path
               d="m 0.128,0.48100005 c 0.001333,0.005333 0.005667,0.008 0.013,0.008 0.008,-3e-8 0.0213333,-0.003 0.04,-0.009 0.0173333,-0.006 0.032,-0.0126667 0.044,-0.02 0.0126667,-0.007333 0.02,-0.014 0.022,-0.02 0.001333,-0.006667 -6.6666e-4,-0.0203333 -0.006,-0.041 -0.005333,-0.02 -0.0123333,-0.041 -0.021,-0.063 C 0.1986667,0.28133335 0.174,0.24200005 0.146,0.21800002 0.118,0.19466669 0.08000001,0.18166667 0.032,0.179 L 0,0.177 0.02,0.206 c 0.02733333,0.0373334 0.051,0.0826667 0.07100001,0.136 0.0053333,0.0133333 0.012,0.035 0.01999999,0.065 0.008667,0.0306667 0.0143333,0.0553334 0.017,0.0740001 m 0.41900008,0.021 c -0.001333,0.002 -3.3338e-4,0.003 0.003,0.003 0.002667,-6.666e-4 0.008667,-0.002667 0.018,-0.006 0.0720001,-0.0273333 0.12833337,-0.0609999 0.16900007,-0.10099996 0.0413333,-0.0406667 0.058,-0.0856667 0.05,-0.13500004 -0.002667,-0.0166667 -0.008,-0.033 -0.0160001,-0.049 -0.008,-0.0153333 -0.0159999,-0.0253333 -0.0239999,-0.03 -0.0160001,-0.009333 -0.034,-0.004333 -0.0540001,0.015 -0.0193333,0.02 -0.0473333,0.0616667 -0.084,0.12499998 -0.0153332,0.0266667 -0.026,0.0473334 -0.032,0.062 -0.005333,0.0153333 -0.009,0.033 -0.0109999,0.053 -0.002,0.0166667 -0.008333,0.0376667 -0.019,0.0630001 M 0.316,0.7390001 c 0.003333,0.002 0.0216667,0.002 0.055,0 0.034,-0.001333 0.0563333,-0.003667 0.067,-0.007 0.014,-0.004 0.023,-0.009 0.027,-0.015 C 0.469,0.7116671 0.472,0.7003335 0.474,0.6830002 0.476,0.6623335 0.477,0.5673335 0.477,0.39800014 0.477,0.26133346 0.476,0.17833344 0.474,0.1490001 0.472,0.1196668 0.466333,0.09433343 0.457,0.0730001 0.451667,0.0610001 0.443,0.04733343 0.431,0.0320001 0.41966669,0.01733333 0.41066668,0.00833333 0.404,0.005 0.39733336,0.00166667 0.39233337,0 0.38900004,0 c -0.003333,0 -0.011,0.00166667 -0.023,0.005 -0.0313333,0.008 -0.057,0.02033334 -0.077,0.03700001 -0.02,0.01666666 -0.0373333,0.03899999 -0.052,0.067 l -0.018,0.034 0.028,-0.003 c 0.0153334,-0.002 0.0303333,-0.002667 0.045,-0.002 0.0146667,0.001333 0.024,0.003667 0.028,0.007 0.006667,0.004667 0.0106667,0.017 0.012,0.037 0.002,0.0206667 0.003333,0.0653333 0.004,0.13399999 0.001333,0.088 -4e-8,0.17033338 -0.004,0.2470001 C 0.328,0.64033338 0.32233335,0.6926667 0.315,0.72 0.313,0.73 0.31333337,0.7363334 0.316,0.7390001 Z"
               id="path8" />
          </symbol>
          <symbol
             id="font_4_5141">
            <path
               d="m 0.27666668,0.31933335 c -6.6668e-4,0.002667 -0.004,0.005 -0.01,0.007 -0.005333,0.002 -0.015,0.003 -0.029,0.003 -0.0133333,6.6663e-4 -0.0236667,3.3333e-4 -0.031,-0.001 -0.001333,0 -0.003667,-6.6668e-4 -0.007,-0.002 -0.003333,-6.6665e-4 -0.007333,-0.001667 -0.012,-0.003 -0.004667,-0.001333 -0.008667,-0.002333 -0.012,-0.003 -0.0106667,-0.002667 -0.0173333,-0.004667 -0.02,-0.006 -0.002,-0.001333 -0.002333,-0.004 -0.001,-0.008 0.001333,-0.007333 0.004667,-0.022 0.01,-0.044 0.004,-0.0173333 0.006667,-0.0276667 0.008,-0.031 0.002,-0.003333 0.005333,-0.004667 0.01,-0.004 0.001333,6.6665e-4 0.004333,0.001333 0.009,0.002 0.004667,0.001333 0.0113333,0.002667 0.02,0.004 0.008667,0.002 0.0156667,0.003667 0.021,0.005 l 0.041,0.008 0.003,0.016 c 0.001333,0.0126667 0.002,0.0253333 0.002,0.038 0,0.0106667 -6.6668e-4,0.017 -0.002,0.019 M 0.13566667,0.7733334 c -6.6667e-4,0.002667 3.3335e-4,0.004 0.003,0.004 0.003333,6.6678e-4 0.008667,6.6678e-4 0.016,0 0.0586667,-0.004667 0.0926667,-0.009667 0.10199999,-0.0149999 0.009333,-0.004667 0.0146667,-0.0103333 0.016,-0.0170001 0.002,-0.006667 0.001667,-0.0249999 -9.9998e-4,-0.0549999 -0.002667,-0.0373334 -0.003667,-0.0566667 -0.003,-0.058 6.6668e-4,-0.001333 0.0116667,0 0.033,0.004 0.0246667,0.004667 0.0413333,0.006333 0.05,0.005 0.009333,-6.6668e-4 0.0176667,-0.004333 0.025,-0.011 0.007333,-0.007333 0.0136667,-0.0183334 0.019,-0.0330001 0.006,-0.014 0.009,-0.0266666 0.009,-0.038 0,-0.0146666 -0.004333,-0.0239999 -0.013,-0.028 -0.008667,-0.004 -0.0313334,-0.006667 -0.068,-0.008 -0.01,-6.667e-4 -0.0196666,-0.001333 -0.029,-0.002 -0.009333,0 -0.0166667,-3.3337e-4 -0.022,-9.9999e-4 h -0.007 c -6.6664e-4,-6.6667e-4 -9.9998e-4,-0.015 -9.9998e-4,-0.043 v -0.042 l 0.021,-0.002 c 0.014,-0.001333 0.031,-0.005667 0.051,-0.013 0.02,-0.006667 0.0353333,-0.0133333 0.046,-0.02 0.022,-0.014 0.0333333,-0.031 0.034,-0.051 6.6667e-4,-0.02 -0.009,-0.0536667 -0.029,-0.10100001 -0.032,-0.08 -0.0553333,-0.12266667 -0.07,-0.128 -0.004667,-0.001333 -0.0113333,0.001667 -0.02,0.009 -0.008667,0.007333 -0.0153333,0.0153333 -0.02,0.024 l -0.009,0.016 -0.042,-0.007 c -0.0213333,-0.004 -0.035,-0.007333 -0.041,-0.01 -0.005333,-0.002667 -0.012,-0.007667 -0.02,-0.015 -0.01,-0.008667 -0.0206667,-0.016 -0.032,-0.022 -0.0113333,-0.006 -0.021,-0.008333 -0.029,-0.007 -0.004,6.6667e-4 -0.007,0.002333 -0.009,0.005 -0.0013333,0.002667 -0.0036667,0.008 -0.007,0.016 -0.01400001,0.048 -0.02700001,0.092 -0.03900001,0.13200003 l -0.033,0.111 0.028,0.002 c 0.01866667,0.001333 0.042,0.007333 0.07,0.018 l 0.04,0.017 -0.001,0.043 c -6.6667e-4,0.0286667 -0.001333,0.0433333 -0.002,0.044 -6.6666e-4,6.6663e-4 -0.0103333,-0.002333 -0.029,-0.009 -0.0213333,-0.007333 -0.03900001,-0.009 -0.053,-0.005 -0.01333334,0.004 -0.029,0.016 -0.047,0.0359999 C 0.00733333,0.535 0,0.545 6.666668e-4,0.54833337 0.002,0.55233338 0.01366667,0.55766668 0.03566667,0.5643333 c 0.0073333,0.002 0.02133333,0.006 0.042,0.0120001 C 0.09833334,0.5830004 0.111,0.587 0.11566667,0.5883333 l 0.04,0.013 v 0.014 c 0,0.0220001 -0.002333,0.051 -0.007,0.0870001 -0.004667,0.0366666 -0.009,0.0603333 -0.013,0.071 M 0.69966676,0.48633338 c -0.002,0.003333 -0.0130001,0.004 -0.0330001,0.002 -0.02,-0.001333 -0.0393333,-0.004 -0.058,-0.008 l -0.025,-0.006 v -0.02 c 0,-0.0133334 -0.001,-0.0256667 -0.003,-0.037 l -0.003,-0.018 0.017,0.003 c 0.0233334,0.002667 0.043,0.005 0.0590001,0.007 l 0.0429999,0.004 0.003,0.035 c 0.001333,0.024 0.001333,0.0366667 0,0.038 m -0.016,0.17499992 c -0.002,0.005333 -0.004667,0.008333 -0.008,0.009 -0.002667,0.001333 -0.0103333,0.001667 -0.023,0.001 -0.0173333,0 -0.0343333,-0.003 -0.051,-0.009 -0.0173333,-0.006667 -0.0273333,-0.0103333 -0.03,-0.0109999 -0.005333,-0.002 -0.007333,-0.005667 -0.006,-0.011 0.002,-0.004667 0.004667,-0.0206667 0.008,-0.0480001 0.004667,-0.0273333 0.007333,-0.0413333 0.008,-0.042 6.667e-4,-0.001333 0.0196667,0.001667 0.057,0.009 0.0380001,0.008 0.0576667,0.0126667 0.059,0.014 0.001333,0.001333 -3.333e-4,0.0150001 -0.005,0.0410001 -0.004,0.026 -0.007,0.0416666 -0.009,0.0469999 M 0.6676668,0.77933338 c 0.0366666,0.004667 0.0656666,0.002333 0.087,-0.007 0.008667,-0.002667 0.0199999,-0.0116666 0.0339999,-0.027 0.014,-0.0146666 0.0223334,-0.0263332 0.025,-0.0349999 0.003333,-0.0106667 0.004,-0.023 0.002,-0.037 -0.001333,-0.016 -0.003333,-0.10933337 -0.006,-0.28000001 -0.002,-0.14333336 -0.004667,-0.24000001 -0.008,-0.29000002 -0.002667,-0.05000001 -0.008333,-0.08166667 -0.0170001,-0.09500001 -0.002,-0.004 -0.004333,-0.00633333 -0.007,-0.007 -0.002667,-0.00133333 -0.007,-0.00133333 -0.013,0 -0.01,0.00133334 -0.0206668,0.00566667 -0.032,0.013 -0.009333,0.0066667 -0.0333334,0.02900001 -0.0720001,0.06700001 -0.038,0.03866667 -0.0589999,0.06100001 -0.0629999,0.067 -0.002,0.004667 -9.9999e-4,0.007 0.003,0.007 0.002667,6.6666e-4 0.007333,0.001 0.014,0.001 0.0126667,0 0.0266667,9.9999e-4 0.042,0.003 0.016,0.002667 0.025,0.004667 0.027,0.006 0.002,0.002667 0.006333,0.047 0.013,0.13300001 l 0.002,0.034 -0.046,-0.003 c -0.0293333,-0.001333 -0.0503333,-0.003667 -0.063,-0.007 l -0.018,-0.005 -0.0109999,-0.04 c -0.006,-0.0246667 -0.0143334,-0.0506667 -0.0250001,-0.078 -0.01,-0.0273333 -0.019,-0.0473333 -0.027,-0.06 -0.022,-0.0353333 -0.052,-0.06 -0.09,-0.074 C 0.406,0.06066667 0.388,0.056 0.36466668,0.05133334 c -0.0233333,-0.004 -0.041,-0.006 -0.053,-0.006 h -0.014 l 0.027,0.02600001 c 0.0593333,0.06066668 0.099,0.13099999 0.11899999,0.21100001 0.0173333,0.0673333 0.0276667,0.13233334 0.031,0.19500003 0.004,0.0633333 9.9999e-4,0.11499992 -0.009,0.15499998 -0.002667,0.01 -0.008333,0.0243333 -0.017,0.0429999 -0.008,0.0193334 -0.014,0.0313334 -0.018,0.0360001 -0.004667,0.004 -0.003,0.007 0.005,0.009 0.002667,0.001333 0.007,0.002333 0.013,0.003 0.0133333,0.003333 0.0376667,0.0103333 0.073,0.0209999 0.058,0.0180001 0.1066667,0.0296667 0.14600013,0.0350001 z"
               id="path9" />
          </symbol>
          <symbol
             id="font_4_3e98">
            <path
               d="m 0.174,0.29333336 c 0.0226667,0.0206666 0.0396667,0.0363333 0.051,0.047 0.012,0.0113334 0.018,0.0166667 0.018,0.016 6.6667e-4,0 -0.001,-0.0123334 -0.005,-0.037 -0.004667,-0.022 -0.007333,-0.0383333 -0.008,-0.049 0,-0.005333 -0.002,-0.0123333 -0.006,-0.021 -0.003333,-0.008 -0.012,-0.024 -0.026,-0.048 -0.0113333,-0.018 -0.02,-0.037 -0.026,-0.057 -0.0126667,-0.038 -0.0256667,-0.06266668 -0.039,-0.07400001 -0.009333,-0.008 -0.0173333,-0.012 -0.024,-0.012 -0.006,0 -0.01533334,0.004 -0.028,0.012 C 0.06633333,0.079 0.049,0.08733335 0.029,0.09533334 L 0.002,0.10733335 0,0.12233335 c 0,0.008 0.00133333,0.0133333 0.004,0.016 0.002,0.003333 0.01,0.009333 0.024,0.018 0.01866667,0.0133334 0.036,0.0286667 0.05200001,0.046 0.01333333,0.014 0.04466666,0.0443333 0.09399999,0.091 m 0.51800006,0.21300002 c 0.014,0.003333 0.0326667,0.005333 0.056,0.006 0.0233333,6.667e-4 0.0403333,-3.334e-4 0.051,-0.003 0.007333,-0.002 0.0163333,-0.007333 0.027,-0.0160001 0.0106667,-0.008667 0.018,-0.017 0.022,-0.025 0.008667,-0.0166667 0.007,-0.035 -0.005,-0.055 -0.0113334,-0.0193333 -0.0313334,-0.0373333 -0.06,-0.054 l -0.017,-0.01 0.023,0.002 c 0.0666666,0.006667 0.10366672,0.007333 0.11100004,0.002 0.01,-0.008667 0.0166667,-0.0263333 0.02,-0.053 0.004,-0.026 0.002333,-0.0446667 -0.005,-0.056 -6.667e-4,-6.6666e-4 -0.001333,-0.001333 -0.002,-0.002 -0.002667,-0.004667 -0.006333,-0.007 -0.011,-0.007 -0.004667,6.6666e-4 -0.0203334,0.003667 -0.047,0.009 -0.006,6.6666e-4 -0.0103334,0.001 -0.013,0.001 -0.0253333,0.004667 -0.0393334,0.006333 -0.042,0.005 -0.001333,-6.6666e-4 -0.001333,-0.0143333 0,-0.041 0.001333,-0.024 6.6667e-4,-0.0506667 -0.002,-0.08 -0.002667,-0.0293334 -0.006333,-0.05166668 -0.011,-0.06700001 -0.004667,-0.012 -0.0113334,-0.02366667 -0.02,-0.035 -0.008667,-0.012 -0.017,-0.02 -0.025,-0.024 C 0.7353334,0 0.7256667,0 0.71300008,0.00333334 c -0.0146666,0.004 -0.0293334,0.01033333 -0.0440001,0.019 -0.0146666,0.008 -0.0256666,0.01633333 -0.0329999,0.025 -0.006,0.006 -0.0133334,0.016 -0.022,0.03 -0.008667,0.014 -0.013,0.02200001 -0.013,0.024 0,0.001333 0.011,0.001667 0.033,0.001 0.022,-6.6667e-4 0.0373333,6.6667e-4 0.046,0.004 0.006,0.002667 0.009667,0.005333 0.011,0.008 0.002,0.003333 0.004,0.011 0.006,0.023 0.007333,0.0446667 0.009333,0.0756667 0.006,0.093 l -0.002,0.015 -0.0320001,-0.009 c -0.0273333,-0.007333 -0.0439999,-0.011 -0.0499999,-0.011 -0.005333,0 -0.0123333,0.003667 -0.021,0.011 -0.0146667,0.014 -0.027,0.0343333 -0.037,0.061 -0.004667,0.0133334 -0.004667,0.02 0,0.02 0.002667,0 0.0143333,0.001333 0.035,0.004 0.0333333,0.006 0.0533333,0.009333 0.06,0.01 0.0133333,0.002667 0.021,0.004667 0.023,0.006 0.002667,0.001333 0.003333,0.004333 0.002,0.009 -6.6668e-4,0.004667 -0.002,0.009667 -0.004,0.015 -0.001333,0.003333 0,0.005333 0.004,0.006 0.002,-3e-8 0.006333,-3.3336e-4 0.013,-0.001 l 0.02,-0.002 0.012,0.019 c 0.0166666,0.0293333 0.023,0.0463333 0.019,0.051 -0.002667,0.002 -0.0116667,6.6668e-4 -0.027,-0.004 -0.0146667,-0.004 -0.0296667,-0.009667 -0.045,-0.017 -0.014,-0.007333 -0.0236667,-0.0116667 -0.029,-0.013 -0.004667,-0.001333 -0.009667,-0.001 -0.015,9.9999e-4 -0.007333,0.003333 -0.017,0.009667 -0.0290001,0.019 -0.0113332,0.01 -0.0196666,0.0196667 -0.0249999,0.029 -0.004,0.006 -0.006333,0.01 -0.007,0.012 0,0.002 0.001667,0.004 0.005,0.006 0.004,0.002667 0.02,0.008667 0.048,0.018 0.0286666,0.009333 0.0523333,0.0163333 0.071,0.021 m -0.61900005,0.002 c 0.014,0.005333 0.02433333,0.008 0.031,0.008 0.007333,0 0.016,-0.003 0.026,-0.009 0.0206667,-0.0133333 0.0363333,-0.032 0.047,-0.056 l 0.008,-0.019 -0.01,-0.022 c -0.006,-0.0106667 -0.018,-0.0303333 -0.036,-0.059 -0.018,-0.028 -0.028,-0.042 -0.03,-0.042 v 0.002 c 0,0.001333 0,0.003 0,0.005 6.6667e-4,0.002667 0.001333,0.005 0.002,0.007 0.002667,0.0113333 0.003667,0.0233333 0.003,0.036 -1e-8,0.0126666 -0.001667,0.022 -0.005,0.028 -0.006667,0.014 -0.03066667,0.033 -0.07200001,0.057 -0.02,0.012 -0.02933333,0.0193333 -0.028,0.022 6.6667e-4,0.003333 0.00866667,0.01 0.024,0.02 0.01533334,0.01 0.02866667,0.0173334 0.04000001,0.0220001 M 0.46,0.62133339 c 0.028,0.004 0.0466667,0.006 0.0560001,0.006 0.009333,0 0.0163333,-0.002333 0.021,-0.007 0.008,-0.008667 0.0129999,-0.0223333 0.015,-0.041 0.002667,-0.0186666 9.9999e-4,-0.0333334 -0.005,-0.044 -0.003333,-0.006 -0.009333,-0.0106667 -0.018,-0.014 -0.008,-0.002667 -0.0233334,-0.005333 -0.0460001,-0.008 -0.0253333,-0.002667 -0.0436666,-0.004667 -0.055,-0.006 l -0.018,-0.003 0.001,-0.025 c 6.6667e-4,-0.018 0.002,-0.0286667 0.004,-0.032 0.002,-0.002667 0.008,-0.003333 0.018,-0.002 0.0126667,0.002 0.0306667,0.003 0.054,0.003 0.0173334,0 0.0286667,-6.6668e-4 0.034,-0.002 0.005333,-6.6668e-4 0.0106667,-0.003 0.0160001,-0.007 0.01,-0.007333 0.0163333,-0.016 0.019,-0.026 0.003333,-0.009333 0.004333,-0.024 0.003,-0.044 -0.001333,-0.0213333 -0.007,-0.0563334 -0.017,-0.10500002 -0.01,-0.0486667 -0.0193333,-0.0893333 -0.028,-0.122 -0.016,-0.05400001 -0.0326667,-0.09033334 -0.05,-0.10900001 -0.0113334,-0.012 -0.0206667,-0.01766667 -0.028,-0.017 -0.007333,0 -0.0166667,0.006 -0.028,0.018 -0.0206667,0.022 -0.038,0.05033333 -0.052,0.085 l -0.007,0.02 0.011,-0.002 c 0.0173333,-0.004 0.0283333,-0.006 0.033,-0.006 0.005333,6.6668e-4 0.01,0.003667 0.014,0.009 0.006667,0.008 0.0143334,0.0303334 0.023,0.067 0.009333,0.0373333 0.016,0.076 0.02,0.116 l 0.003,0.019 H 0.441 c -0.008667,0 -0.017,-0.001333 -0.025,-0.004 -0.006,-0.002667 -0.0103333,-0.006333 -0.013,-0.011 -0.002,-0.004 -0.005667,-0.0163333 -0.011,-0.037 -0.014,-0.056 -0.0326667,-0.10799999 -0.056,-0.156 -0.0193333,-0.03933333 -0.0393333,-0.067 -0.06,-0.083 -0.02,-0.01533334 -0.0466667,-0.02433334 -0.08,-0.027 -0.02,-0.0013333 -0.034,-10e-4 -0.042,0.001 l -0.013,0.002 0.023,0.027 c 0.0453333,0.05066667 0.0826667,0.12066667 0.112,0.21000001 0.0246667,0.0753333 0.0386667,0.13866665 0.042,0.19 l 0.002,0.031 -0.009,-0.003 c -0.008,-0.002 -0.0166667,-0.003667 -0.026,-0.005 -0.008,-0.001333 -0.0136667,-0.001333 -0.017,0 -0.003333,0.001333 -0.008333,0.005333 -0.015,0.012 -0.008667,0.007333 -0.0193334,0.0196667 -0.032,0.037 -0.012,0.018 -0.0183333,0.0293334 -0.019,0.034 0,0.002 0.003333,0.004 0.01,0.006 0.006667,0.002667 0.0193333,0.006 0.038,0.01 0.0233333,0.004667 0.06,0.0126667 0.11,0.024 0.0440001,0.01 0.0773334,0.017 0.1,0.021 m -0.31,0.094 c 0.007333,0.002 0.015,0.002 0.023,0 0.008,-0.002 0.0143333,-0.005333 0.019,-0.01 0.006,-0.005333 0.0123333,-0.0156666 0.019,-0.031 0.007333,-0.0153333 0.011,-0.027 0.011,-0.035 0,-0.005333 -0.002,-0.0106667 -0.006,-0.016 -0.003333,-0.004667 -0.012,-0.014 -0.026,-0.028 C 0.16666667,0.5726667 0.152,0.559 0.146,0.5543334 l -0.011,-0.007 0.001,0.027 c 0.001333,0.0126667 0.001333,0.021 0,0.025 -6.6665e-4,0.004667 -0.003333,0.0103333 -0.008,0.017 -0.006667,0.01 -0.02,0.0236667 -0.03999999,0.041 C 0.06866667,0.6753333 0.059,0.68533346 0.059,0.6873334 c 0,0.001333 0.01033334,0.005 0.031,0.011 0.02133334,0.006667 0.04133334,0.0123333 0.06,0.017 m 0.44900006,0.028 c -6.6668e-4,0.001333 0.003333,0.001333 0.012,0 0.009333,-0.001333 0.0196667,-0.003 0.031,-0.005 0.012,-0.002 0.0206667,-0.004 0.026,-0.006 0.009333,-0.004 0.0183333,-0.009 0.027,-0.015 0.009333,-0.006 0.015,-0.0113334 0.017,-0.016 0.002667,-0.007333 0.004,-0.018 0.004,-0.032 v -0.022 l 0.053,0.017 c 0.0366667,0.0113334 0.06,0.0173333 0.07,0.018 0.007333,0.001333 0.0123334,0.001667 0.015,0.001 0.003333,-6.666e-4 0.007,-0.004 0.011,-0.01 0.009333,-0.01 0.0163333,-0.0263334 0.021,-0.049 0.005333,-0.0226666 0.005333,-0.037 0,-0.043 -0.003333,-0.004667 -0.009667,-0.008 -0.019,-0.01 -0.008667,-0.002 -0.026,-0.005333 -0.052,-0.01 -0.0386667,-0.006 -0.0646667,-0.01 -0.078,-0.012 -0.0326667,-0.006667 -0.0516666,-0.007333 -0.057,-0.002 -0.003333,0.002667 -0.0116667,-0.002333 -0.025,-0.015 -0.0133334,-0.0126666 -0.0353333,-0.026 -0.066,-0.04 -0.0313334,-0.0166667 -0.0496667,-0.027 -0.055,-0.031 l -0.011,-0.007 0.013,0.026 c 0.0346667,0.0746666 0.0563333,0.12366669 0.065,0.14700003 0.008667,0.0233333 0.0126666,0.044 0.012,0.062 0,0.0186666 -0.004667,0.0366667 -0.014,0.054 m -0.24200003,-0.004 -0.007,0.016 h 0.04 c 0.036,0 0.0583333,-0.003 0.067,-0.009 0.009333,-0.006 0.014,-0.02 0.014,-0.042 3e-8,-0.0213334 -0.002333,-0.0346667 -0.007,-0.04 -0.004667,-0.005333 -0.023,-0.016 -0.055,-0.032 -0.009333,-0.004667 -0.0193333,-0.009333 -0.03,-0.014 -0.01,-0.004667 -0.0176666,-0.008333 -0.023,-0.011 l -0.007,-0.003 c -0.001333,-0.001333 6.6669e-4,0.006667 0.006,0.024 0.006667,0.0193333 0.01,0.0396667 0.01,0.061 6.6667e-4,0.0213333 -0.002,0.038 -0.008,0.05 z"
               id="path10" />
          </symbol>
          <symbol
             id="font_4_5c10">
            <path
               d="M 0.126,0.469 0.155,0.491 H 0.19 C 0.2153334,0.491 0.2356667,0.49 0.251,0.488 0.273,0.484667 0.286,0.4776666 0.29,0.467 0.294667,0.457 0.293333,0.4363333 0.286,0.405 0.274,0.353 0.268,0.30366665 0.268,0.25699996 c 0,-0.0246667 3.3336e-4,-0.037 0.001,-0.037 0.001333,0 0.009333,0.004333 0.024,0.013 0.0573334,0.0333333 0.0860001,0.047 0.0860001,0.041 0,-0.003333 -0.005667,-0.024 -0.017,-0.062 -0.0113333,-0.038 -0.0186667,-0.0596667 -0.022,-0.065 C 0.3326667,0.13233334 0.31133337,0.11333334 0.27600003,0.09 0.25733338,0.07733334 0.23666668,0.06 0.214,0.038 0.19333333,0.01866667 0.17933333,0.008 0.172,0.006 0.16466667,0.004 0.15533333,0.00833333 0.144,0.019 0.13666667,0.02766667 0.12166667,0.04133334 0.09900001,0.06 0.08233334,0.07400001 0.07,0.08433334 0.062,0.09100001 c -6.6666e-4,6.6667e-4 0.0013333,0.003 0.006,0.007 0.0046667,0.0026667 0.01066667,0.0056667 0.018,0.009 0.02066668,0.0106667 0.03966668,0.022 0.057,0.034 l 0.029,0.019 -0.004,0.012 c -0.001333,0.008 -0.002,0.0346667 -0.002,0.08 0.001333,0.046 0.001,0.0773334 -0.001,0.094 l -0.002,0.026 -0.018,-0.011 c -0.0126667,-0.007333 -0.0243333,-0.0126667 -0.035,-0.016 -0.02866666,-0.01 -0.06133333,0.002 -0.098,0.036 C 0.004,0.38900004 0,0.39366666 0,0.395 0,0.397 0.01633334,0.406 0.049,0.422 0.081,0.4373333 0.10666666,0.453 0.126,0.469 m 0.49600006,0.192 c 0.0306667,0.006 0.0703333,0.004333 0.11900002,-0.005 0.0486666,-0.008667 0.08,-0.0196666 0.094,-0.033 l 0.012,-0.013 -9.9999e-4,-0.032 c -0.002,-0.0353333 -0.0186667,-0.0913333 -0.05,-0.16799996 -0.018,-0.044 -0.0316667,-0.0736667 -0.041,-0.089 -0.009333,-0.0153333 -0.0186667,-0.023 -0.028,-0.023 -0.008,0 -0.017,0.002333 -0.027,0.007 -0.01,0.004667 -0.0173334,0.009667 -0.022,0.015 -0.004667,0.006 -0.0116667,0.009 -0.021,0.009 -0.026,0 -0.0623334,-0.006667 -0.10900003,-0.02 -0.0120001,-0.004 -0.02,-0.007 -0.024,-0.009 -0.003333,-0.002 -0.005333,-0.004667 -0.006,-0.008 -0.002,-0.006667 -0.001667,-0.0263333 0.001,-0.059 C 0.5216667,0.199 0.526,0.17633336 0.532,0.165 0.538,0.153 0.5463334,0.1456667 0.5570001,0.143 0.5676667,0.141 0.5946667,0.14 0.638,0.14 0.7100001,0.13933333 0.75466677,0.143333 0.772,0.152 0.7966667,0.1646667 0.8170001,0.2003333 0.8330001,0.25899999 l 0.009,0.033 0.009,-0.013 c 0.0166666,-0.0213333 0.032,-0.053 0.046,-0.095 0.0126666,-0.038 0.014,-0.0723333 0.004,-0.10300001 C 0.897,0.06900001 0.88966676,0.057 0.87900009,0.045 0.869,0.033 0.85800006,0.02433334 0.8460001,0.019 0.82933339,0.01033333 0.8116667,0.005 0.79300007,0.003 0.77500006,0.001 0.7356667,0 0.675,0 0.6343334,0 0.6013334,0.001 0.57600006,0.003 0.55066677,0.00433333 0.52800008,0.00633333 0.508,0.009 0.4886667,0.01233333 0.4736667,0.01733333 0.463,0.024 0.4523333,0.0313333 0.4436667,0.03966667 0.437,0.049 0.430333,0.0583333 0.4246666,0.07033334 0.42,0.08500001 0.41,0.11833334 0.405,0.17400001 0.405,0.252 v 0.08 L 0.393,0.348 C 0.385667,0.357333 0.3826667,0.3626667 0.384,0.364 0.385333,0.36466667 0.4016667,0.369333 0.433,0.378 0.485,0.392 0.517,0.4006667 0.529,0.404 0.5636666,0.413333 0.5953333,0.4206667 0.6239999,0.426 L 0.671,0.434 0.675,0.471 C 0.677667,0.4943333 0.679,0.514 0.679,0.53 V 0.552 L 0.651,0.55 C 0.6183334,0.5473333 0.57100006,0.5363333 0.509,0.517 0.4936667,0.512333 0.4823333,0.51 0.475,0.51 0.468333,0.51066662 0.459,0.513667 0.447,0.519 0.438333,0.523 0.428,0.5296666 0.416,0.539 0.4046666,0.549 0.3953333,0.5579999 0.388,0.566 0.380667,0.574667 0.378,0.5803333 0.38,0.5829999 0.382,0.5849999 0.404,0.5933333 0.446,0.608 0.488,0.6226666 0.5209999,0.6333333 0.545,0.64 0.5803334,0.6506667 0.606,0.6576667 0.62200006,0.661 M 0.229,0.693 C 0.2463334,0.696333 0.258,0.698 0.264,0.698 0.27,0.69866678 0.2766666,0.6973334 0.284,0.694 0.2986667,0.688 0.3113334,0.6746666 0.322,0.654 0.3326667,0.632 0.334,0.616 0.326,0.606 0.323333,0.602 0.3073333,0.588 0.278,0.564 0.272,0.558667 0.265,0.5523334 0.257,0.545 0.249,0.538333 0.2426666,0.5330001 0.238,0.5290001 c -0.004,-0.004 -0.006667,-0.006333 -0.008,-0.007 -0.002667,-0.002 -0.004,-0.002333 -0.004,-0.001 0,0.002 9.9999e-4,0.007333 0.003,0.016 0.006,0.0206667 0.006333,0.0363333 0.001,0.0470001 -0.004667,0.0106666 -0.018,0.0256666 -0.04,0.0449999 -0.003333,0.002667 -0.007667,0.006 -0.013,0.0100001 -0.0193333,0.0166666 -0.0286667,0.0263333 -0.028,0.029 6.6667e-4,0.002667 0.006333,0.005333 0.017,0.008 0.003333,6.6668e-4 0.006,0.001333 0.008,0.002 0.02,0.007333 0.0383333,0.0123333 0.055,0.0149998 z"
               id="path11" />
          </symbol>
          <use
             xlink:href="#font_4_2c6f"
             transform="matrix(111.10417,0,0,-111.10417,103.10201,143.41645)"
             fill="#333333"
             id="use11" />
          <use
             xlink:href="#font_4_5141"
             transform="matrix(111.10417,0,0,-111.10417,218.24031,145.78667)"
             fill="#333333"
             id="use12" />
          <use
             xlink:href="#font_4_3e98"
             transform="matrix(111.10417,0,0,-111.10417,328.9715,144.3423)"
             fill="#333333"
             id="use13" />
          <use
             xlink:href="#font_4_5c10"
             transform="matrix(111.10417,0,0,-111.10417,446.51707,141.08325)"
             fill="#333333"
             id="use14" />
        </g>
        <g
           id="g46"
           data-name="P">
          <g
             id="g14"
             data-name="P" />
          <symbol
             id="font_5_3b">
            <path
               d="M 0.291,0.32500003 C 0.17366667,0.15233334 0.10366666,0.04833333 0.081,0.013 0.07633334,0.00633333 0.06666667,0.003 0.05200001,0.003 0.03933334,0.003 0.02733334,0.00566667 0.016,0.011 0.00533333,0.01566667 0,0.02133334 0,0.028 0,0.03 0.00166667,0.03333334 0.005,0.038 0.04033334,0.07866667 0.06633333,0.11133334 0.08300001,0.136 0.12233334,0.194 0.17866667,0.27600003 0.252,0.38200004 0.18800001,0.48066674 0.14233335,0.5486667 0.115,0.586 0.08766667,0.6233334 0.06266667,0.65500006 0.04,0.68100008 c -0.0026667,0.002667 -0.004,0.005667 -0.004,0.009 0,0.008 0.0063333,0.0149999 0.01900001,0.0209999 0.01333333,0.006667 0.02633333,0.01 0.039,0.01 0.01066666,0 0.01766666,-0.002667 0.02099999,-0.008 0.0113333,-0.0213333 0.0263333,-0.0466667 0.045,-0.0760001 0.0126667,-0.0193333 0.0253333,-0.0383333 0.038,-0.0569999 0.0126666,-0.0186667 0.025,-0.037 0.037,-0.055 l 0.063,-0.093 C 0.41666667,0.6 0.48100005,0.69166669 0.491,0.707 0.494333,0.711 0.499333,0.713 0.5060001,0.713 0.5166667,0.713 0.5280001,0.709 0.54,0.701 0.5520001,0.693667 0.558,0.686 0.558,0.678 0.558,0.674667 0.556667,0.671667 0.554,0.669 0.5346667,0.6496667 0.503,0.6100001 0.459,0.55 0.4156667,0.4906667 0.374,0.43200005 0.334,0.37400005 0.40066669,0.2726667 0.45133338,0.19933333 0.48600004,0.154 c 0.0346667,-0.0453333 0.0663333,-0.08299999 0.095,-0.113 0.002667,-0.0026667 0.004,-0.0056667 0.004,-0.009 0,-0.0073333 -0.006667,-0.01433333 -0.0200001,-0.021 C 0.55233338,0.00366667 0.54,0 0.528,0 0.518,0 0.51033338,0.003 0.505,0.009 L 0.477,0.05 C 0.469667,0.06266667 0.4596667,0.07766667 0.447,0.095 0.3996667,0.16166668 0.34766666,0.23833335 0.291,0.32500003 Z"
               id="path14" />
          </symbol>
          <symbol
             id="font_5_4c">
            <path
               d="m 0.09900001,0.646 c 0,-0.0126666 -0.0043333,-0.0236666 -0.013,-0.0329999 C 0.07733335,0.60433337 0.06533335,0.6 0.05000001,0.6 0.03733334,0.6 0.02566667,0.6063333 0.015,0.619 0.005,0.63166669 0,0.64533337 0,0.66 c 0,0.014 0.00433333,0.0253333 0.013,0.034 0.0086667,0.009333 0.02100001,0.014 0.03700001,0.014 0.012,0 0.023,-0.006667 0.033,-0.02 0.01066666,-0.0133333 0.016,-0.0273333 0.016,-0.042 M 0.013,0.485 c 0,0.006 0.0063333,0.009 0.01900001,0.009 0.012,3e-8 0.024,-0.002667 0.03599999,-0.008 0.01266668,-0.005333 0.01900001,-0.0116666 0.01900001,-0.019 0,-0.014 -3.3333e-4,-0.026 -0.001,-0.036 l -0.001,-0.053 V 0.115 l 0.001,-0.038 0.002,-0.068 C 0.08800002,0.003 0.08166668,0 0.06900001,0 0.057,0 0.04466667,0.00266667 0.03200001,0.008 c -0.012,0.00533334 -0.018,0.01166667 -0.018,0.019 l 0.002,0.088 v 0.26300003 l -10e-4,0.049 z"
               id="path15" />
          </symbol>
          <symbol
             id="font_5_44">
            <path
               d="m 0.43300004,0.47500003 c -4e-8,-0.0153333 -9.9999e-4,-0.0393333 -0.003,-0.072 -0.002,-0.0326667 -0.003333,-0.0563333 -0.004,-0.071 -0.004,-0.0666667 -0.006,-0.107 -0.006,-0.12100002 -3e-8,-0.0693333 0.0116667,-0.122 0.035,-0.15800001 0.001333,-0.0026667 0.002,-0.0046667 0.002,-0.006 0,-0.008 -0.004667,-0.017 -0.014,-0.027 -0.009333,-0.01 -0.0193333,-0.015 -0.03,-0.015 -0.014,0 -0.026,0.01366667 -0.036,0.041 -0.009333,0.02733334 -0.0153333,0.05733333 -0.018,0.09 -0.024,-0.04533332 -0.0533333,-0.07933333 -0.088,-0.102 C 0.23700004,0.01133333 0.20033336,0 0.16100002,0 0.11166668,0 0.07233334,0.01666667 0.04300001,0.05000001 0.01433334,0.08333334 0,0.131 0,0.19300002 c 0,0.0546667 0.01166667,0.10600001 0.035,0.15400002 0.02400001,0.048 0.05500001,0.086 0.09300002,0.114 0.0386667,0.0286667 0.0783333,0.043 0.11899999,0.043 0.0513334,0 0.088,-0.022 0.11000002,-0.066 v 0.055 c 0,0.006667 0.007,0.01 0.021,0.01 0.0126667,0 0.025,-0.002667 0.037,-0.008 0.012,-0.004667 0.018,-0.0106667 0.018,-0.018 v -0.002 M 0.068,0.19800002 C 0.068,0.15 0.07600001,0.115 0.092,0.093 0.10866667,0.071 0.13133334,0.06 0.16,0.06 c 0.032,0 0.0623334,0.01066667 0.091,0.032 0.0293334,0.02133334 0.0533333,0.05066669 0.072,0.088 0.0186667,0.038 0.029,0.081 0.031,0.12900003 6.6666e-4,0.006667 9.9999e-4,0.0213333 9.9999e-4,0.044 l 0.001,0.045 c -0.006,-0.006 -0.0116667,-0.009 -0.017,-0.009 -0.002667,0 -0.005,0.001333 -0.007,0.004 -0.0106667,0.0179999 -0.0236667,0.0313333 -0.039,0.04 -0.0146667,0.008667 -0.03,0.013 -0.046,0.013 -0.0273333,-5e-8 -0.055,-0.011 -0.083,-0.033 -0.028,-0.022 -0.051,-0.052 -0.06899999,-0.09 C 0.077,0.285 0.068,0.24333334 0.068,0.19800002 Z"
               id="path16" />
          </symbol>
          <symbol
             id="font_5_52">
            <path
               d="m 0.13800001,0.46300004 c 0.016,0.012 0.0333333,0.0216667 0.052,0.029 0.0186667,0.008 0.0406667,0.012 0.066,0.012 0.038,0 0.0716667,-0.009667 0.10100003,-0.029 0.0293333,-0.0193333 0.052,-0.0473333 0.068,-0.084 0.0166667,-0.036 0.025,-0.0786667 0.025,-0.12800004 0,-0.044 -0.009667,-0.0863333 -0.029,-0.127 -0.0186667,-0.03999999 -0.046,-0.07266666 -0.082,-0.098 C 0.303,0.01266667 0.26033337,0 0.21100003,0 0.14433335,0 0.09233334,0.02 0.05500001,0.06 0.01833334,0.1 0,0.15500002 0,0.22500003 c 0,0.036 0.00766667,0.073 0.023,0.11100001 0.01533334,0.0386667 0.03266667,0.071 0.05200001,0.097 0.02,0.026 0.03533334,0.039 0.04599999,0.039 0.006667,0 0.0123333,-0.003 0.017,-0.009 M 0.067,0.22600001 c 0,-0.0546667 0.01233334,-0.096 0.03700001,-0.124 0.0246667,-0.02733334 0.0603333,-0.041 0.10700002,-0.041 0.032,0 0.061,0.0086667 0.087,0.026 0.0266667,0.01799999 0.0473334,0.04233332 0.062,0.073 0.0153334,0.0306667 0.023,0.065 0.023,0.10299999 0,0.0566667 -0.0113333,0.101 -0.034,0.13300004 -0.022,0.032 -0.055,0.048 -0.099,0.048 -0.034,0 -0.065,-0.0106667 -0.093,-0.032 -0.028,-0.0213333 -0.05,-0.049 -0.066,-0.083 -0.016,-0.034 -0.024,-0.0683333 -0.02400003,-0.10300003 z"
               id="path17" />
          </symbol>
          <symbol
             id="font_5_2b">
            <path
               d="m 0.47000004,0.37200005 c -0.009333,3e-8 -0.0176667,3.3334e-4 -0.025,9.9999e-4 -0.0213333,0.001333 -0.0396667,0.002 -0.055,0.002 l -0.023,-0.001 L 0.116,0.35900004 H 0.11 V 0.11600001 c 0,-0.01733334 6.6665e-4,-0.04 0.002,-0.06800001 L 0.113,0.01 C 0.113,0.00333333 0.106,0 0.092,0 0.08,0 0.06799999,0.00266667 0.056,0.008 0.044,0.01333334 0.038,0.02 0.038,0.028 c 0,0.01066667 3.3334e-4,0.02 0.001,0.028 L 0.04,0.11700001 V 0.351 C 0.038,0.35033337 0.0356667,0.35000003 0.033,0.35000003 H 0.032 c -0.008,0 -0.01533334,0.006 -0.022,0.018 -0.00666666,0.012 -0.01,0.0236667 -0.01,0.035 0,0.0106667 0.00366667,0.016 0.01100001,0.016 H 0.012 L 0.04000001,0.418 V 0.6 c 0,0.0173334 -6.6667e-4,0.04 -0.002,0.068 l -9.9999e-4,0.038 c 0,0.006667 0.007,0.01 0.021,0.01 0.01199999,0 0.024,-0.002667 0.036,-0.008 0.012,-0.005333 0.018,-0.0119999 0.01799999,-0.02 1e-8,-0.0106666 -3.3333e-4,-0.02 -0.001,-0.028 L 0.11000002,0.599 V 0.418 h 0.005 l 0.25099999,0.015 c 0.0406667,0.002667 0.0683334,0.005333 0.0830001,0.008 h 0.003 c 0.009333,0 0.0173334,-0.008 0.024,-0.024 V 0.6 c 0,0.0173334 -6.6671e-4,0.04 -0.002,0.068 l -9.9999e-4,0.038 c 0,0.006667 0.007,0.01 0.021,0.01 0.012,0 0.0240001,-0.002667 0.036,-0.008 0.012,-0.005333 0.018,-0.0119999 0.018,-0.02 0,-0.0106666 -3.3336e-4,-0.02 -9.9998e-4,-0.028 l -0.001,-0.061 V 0.11700001 c 0,-0.01733333 6.6661e-4,-0.04000001 0.002,-0.06800001 L 0.549,0.011 c 0,-0.00666667 -0.007,-0.01 -0.0209999,-0.01 -0.012,0 -0.0240001,0.00266667 -0.036,0.008 -0.012,0.00533333 -0.018,0.012 -0.018,0.02 3e-8,0.01066667 3.3334e-4,0.02000001 9.9998e-4,0.02800001 l 0.001,0.061 v 0.25500003 z"
               id="path18" />
          </symbol>
          <symbol
             id="font_5_58">
            <path
               d="m 0.411,0.47500003 c 0,-0.008 -0.001,-0.021 -0.003,-0.039 -6.6665e-4,-0.006 -0.002333,-0.0266667 -0.005,-0.062 -0.002667,-0.0346666 -0.004,-0.0743333 -0.004,-0.11899997 0,-0.0306667 0.002333,-0.0656667 0.007,-0.10500003 0.004667,-0.0386667 0.015,-0.071 0.031,-0.097 6.6664e-4,-0.0013333 0.001,-0.0033333 9.9998e-4,-0.006 3e-8,-0.008 -0.004667,-0.017 -0.014,-0.027 -0.009333,-0.01 -0.0193334,-0.015 -0.03,-0.015 -0.0146666,0 -0.0263333,0.01366667 -0.035,0.041 -0.008667,0.028 -0.014,0.05666668 -0.016,0.08600002 C 0.32433335,0.09400001 0.29766668,0.06233334 0.263,0.037 0.22900002,0.01233333 0.19233336,0 0.15300001,0 0.09966668,0 0.06133333,0.01766667 0.038,0.053 0.01466667,0.08833334 0.00300001,0.13366668 0.00300001,0.18900001 V 0.38600005 L 0.002,0.42400003 0,0.49200005 c 0,0.006667 0.00666667,0.01 0.02,0.01 0.012,0 0.02366667,-0.002667 0.03500001,-0.008 C 0.067,0.48866669 0.073,0.48200003 0.073,0.47400005 c 0,-0.014 -3.3333e-4,-0.0263333 -9.9999e-4,-0.037 l -0.001,-0.051 V 0.19300002 c 0,-0.04 0.007,-0.0723334 0.021,-0.09700002 0.01466667,-0.02399999 0.03500001,-0.036 0.061,-0.036 0.0273334,0 0.0546667,0.011 0.082,0.033 0.0273334,0.02266667 0.0503334,0.05366668 0.069,0.09300002 0.0186667,0.04 0.0293333,0.0843334 0.032,0.13300003 6.6664e-4,0.014 9.9996e-4,0.0453333 9.9996e-4,0.094 v 0.08 c 0,0.006667 0.007,0.01 0.021,0.01 0.012,0 0.0236667,-0.002667 0.035,-0.008 0.012,-0.004667 0.018,-0.0106667 0.018,-0.018 z"
               id="path19" />
          </symbol>
          <symbol
             id="font_5_3">
            <path
               d="M 0,0 Z"
               id="path20" />
          </symbol>
          <symbol
             id="font_5_37">
            <path
               d="M 0.117,0.636 C 0.107,0.6353333 0.08700001,0.6333333 0.057,0.63 0.047,0.628 0.03933334,0.627 0.034,0.627 H 0.033 C 0.025,0.627 0.01733333,0.632667 0.01,0.6439999 0.00333333,0.6559999 0,0.6673333 0,0.678 0,0.69 0.00433333,0.696 0.013,0.696 0.0176667,0.696 0.02566667,0.6956667 0.03700001,0.695 0.04900001,0.6943333 0.06466667,0.694 0.084,0.694 l 0.032,0.001 0.32200003,0.018 c 0.0406667,0.002667 0.0683334,0.005333 0.083,0.008 h 0.003 c 0.007333,0 0.014,-0.006 0.0199999,-0.018 0.006667,-0.0113333 0.01,-0.0223333 0.01,-0.033 0,-0.012 -0.004,-0.018 -0.012,-0.018 -0.009333,0 -0.0176667,3.333e-4 -0.025,0.001 -0.0213333,0.001333 -0.0396667,0.002 -0.055,0.002 L 0.439,0.654 0.31300003,0.647 0.314,0.11700001 C 0.314,0.09966668 0.31466667,0.077 0.316,0.049 L 0.317,0.011 C 0.317,0.00366667 0.30933333,0 0.294,0 0.2813333,0 0.269,0.00266667 0.257,0.008 0.2456667,0.01333334 0.24,0.02033334 0.24,0.029 c 0,0.01066667 3.3333e-4,0.02000001 9.9999e-4,0.02800001 l 0.001,0.061 L 0.243,0.643 Z"
               id="path21" />
          </symbol>
          <symbol
             id="font_5_55">
            <path
               d="M 0.002,0.426 0,0.484 c 0,0.006667 0.00666668,0.01 0.02000001,0.01 0.012,3e-8 0.02366667,-0.002667 0.03500001,-0.008 0.01199999,-0.005333 0.01799999,-0.012 0.01799999,-0.02 0,-0.006667 -6.6667e-4,-0.015 -0.002,-0.025 -6.6666e-4,-0.009333 -9.9998e-4,-0.018 -9.9998e-4,-0.026 0.014,0.0233333 0.03366667,0.0426666 0.05899999,0.058 0.0253334,0.0153333 0.0543333,0.023 0.087,0.023 0.0186667,0 0.0366667,-0.003333 0.054,-0.01 0.018,-0.006667 0.0326667,-0.0146666 0.044,-0.024 0.0113333,-0.009333 0.017,-0.018 0.017,-0.026 0,-0.0106667 -0.004,-0.022 -0.012,-0.034 -0.008,-0.012 -0.016,-0.018 -0.024,-0.018 -0.005333,-2e-8 -0.01,0.003333 -0.014,0.01 -0.006,0.0113334 -0.016,0.0203333 -0.03,0.027 -0.014,0.006667 -0.0266667,0.01 -0.038,0.01 -0.0293333,0 -0.0556667,-0.009 -0.079,-0.027 C 0.11133332,0.386 0.09433337,0.3596667 0.08300003,0.325 0.07633335,0.30433334 0.07233334,0.28066669 0.071,0.254 0.0696667,0.2273333 0.069,0.1813334 0.069,0.11600001 0.069,0.11266701 0.07,0.09 0.072,0.04800001 0.0733333,0.028 0.074,0.01533333 0.074,0.01 0.074,0.00333333 0.0673333,0 0.054,0 0.042,0 0.03,0.00266667 0.018,0.008 0.00666667,0.01333334 0.001,0.02 0.001,0.028 L 0.003,0.11600001 V 0.377 Z"
               id="path22" />
          </symbol>
          <symbol
             id="font_5_59">
            <path
               d="m 0.33900003,0.42300005 c 0.006667,0.016 0.0143333,0.0396666 0.023,0.071 0.002,0.006667 0.008667,0.01 0.02,0.01 0.012,0 0.024,-0.003 0.036,-0.009 0.0120001,-0.006 0.018,-0.0126667 0.018,-0.02 0,-0.001333 -6.6668e-4,-0.003333 -0.002,-0.006 -0.0133333,-0.024 -0.024,-0.0456667 -0.032,-0.065 L 0.266,0.08300001 C 0.25666667,0.06100001 0.24933334,0.04100001 0.244,0.023 0.23933333,0.00766667 0.231,0 0.21900001,0 c -0.006667,0 -0.0133333,0.002 -0.02,0.006 -0.006667,0.00333333 -0.0123333,0.00766667 -0.017,0.013 -0.003333,0.004 -0.006,0.008 -0.008,0.012 -0.002,0.004 -0.004,0.0086667 -0.006,0.014 l -0.008,0.019 -0.128,0.34300004 c -0.0046667,0.012 -0.01500001,0.035 -0.03100001,0.069 -6.666666e-4,0.001333 -0.001,0.003 -0.001,0.005 0,0.005333 0.00433333,0.009667 0.013,0.013 0.0086667,0.003333 0.01833334,0.005 0.02900001,0.005 0.02133333,0 0.03333333,-0.004667 0.036,-0.014 0.0086667,-0.0326667 0.01466665,-0.0533333 0.01799999,-0.062 L 0.209,0.108 Z"
               id="path23" />
          </symbol>
          <symbol
             id="font_5_48">
            <path
               d="m 0.086,0.20400001 c 0,-0.0433333 0.011,-0.0783333 0.03300001,-0.10500001 0.022,-0.02666666 0.05,-0.04 0.084,-0.04 0.0873334,0 0.15766666,0.02800001 0.21099999,0.084 0.008,0.01 0.0156667,0.015 0.023,0.015 0.002667,0 0.005,-0.001333 0.007,-0.004 C 0.446,0.152 0.447,0.149333 0.447,0.146 0.447,0.1353333 0.437,0.118 0.417,0.09399999 0.3976667,0.07 0.36966668,0.04833334 0.333,0.029 0.29633335,0.00966667 0.253,0 0.20300001,0 0.16833334,0 0.13733334,0.00866667 0.11000001,0.026 0.08266667,0.04333333 0.06100001,0.068 0.045,0.1 0.029,0.13266668 0.021,0.17033334 0.021,0.21300002 v 0.014 c -0.006,0.004667 -0.011,0.01 -0.015,0.016 C 0.002,0.24900002 0,0.25433336 0,0.259 0,0.267667 0.00633333,0.272 0.019,0.272 l 0.009,0.001 c 0.006,0.0333333 0.021,0.068 0.045,0.104 0.02399999,0.036 0.05400001,0.066 0.09000001,0.09 0.036,0.0246666 0.0743333,0.037 0.11499998,0.037 0.0573334,0 0.0993334,-0.0143333 0.126,-0.043 C 0.4306667,0.433 0.444,0.3986667 0.444,0.358 0.444,0.3326667 0.442,0.314 0.438,0.302 0.434667,0.29 0.4263333,0.2796667 0.413,0.271 0.3996666,0.263 0.378,0.2543333 0.348,0.245 0.2826667,0.2243333 0.19966664,0.214 0.09899997,0.214 H 0.086 V 0.204 M 0.114,0.27 c 0.0746667,0 0.14366669,0.008667 0.207,0.026 0.0233333,0.006667 0.0386667,0.0143333 0.046,0.023 0.007333,0.008667 0.011,0.022 0.011,0.04 0,0.0293333 -0.008333,0.051 -0.025,0.065 C 0.3363333,0.4386667 0.311,0.446 0.277,0.446 0.2463333,0.44599995 0.218,0.436667 0.192,0.418 0.166,0.39933337 0.14433334,0.37633337 0.127,0.34900005 0.11033335,0.3216667 0.09933334,0.29533337 0.09400001,0.27 Z"
               id="path24" />
          </symbol>
          <symbol
             id="font_5_4f">
            <path
               d="M 0.002,0.65000006 0,0.708 c 0,0.006667 0.00666667,0.01 0.02,0.01 0.012,0 0.024,-0.002667 0.036,-0.008 0.01200001,-0.005333 0.01800001,-0.012 0.01800001,-0.02 0,-0.0139999 -3.3334e-4,-0.0259999 -0.001,-0.036 l -0.001,-0.053 V 0.11600001 l 0.001,-0.03800001 0.002,-0.068 C 0.07500001,0.00333333 0.06833334,0 0.055,0 0.043,0 0.03100001,0.00266667 0.019,0.008 0.007,0.01333334 0.001,0.02 0.001,0.028 L 0.003,0.11600001 V 0.601 Z"
               id="path25" />
          </symbol>
          <symbol
             id="font_5_31">
            <path
               d="m 0.46700005,0.60200008 c 0,0.0173332 -6.6668e-4,0.0399999 -0.002,0.0679999 -0.001333,0.0200001 -0.002,0.0326668 -0.002,0.0380001 0,0.006667 0.007,0.01 0.021,0.01 0.012,2e-8 0.024,-0.002667 0.036,-0.008 0.012,-0.005333 0.018,-0.0120001 0.018,-0.02 0,-0.0106667 -3.333e-4,-0.02 -9.9992e-4,-0.028 L 0.536,0.601 V 0.10000001 L 0.538,0.073 0.54,0.045 C 0.54,0.035 0.533,0.025 0.519,0.015 0.5056667,0.005 0.493,0 0.481,0 0.473,0 0.466,0.003 0.46,0.009 0.454667,0.01433333 0.45,0.02 0.446,0.026 0.442,0.0326667 0.439333,0.037 0.438,0.039 0.3766667,0.125 0.313,0.21833335 0.24700001,0.31900005 c -0.066,0.10066664 -0.123,0.19166664 -0.171,0.27300004 V 0.118 c 0,-0.0173333 6.6666e-4,-0.04 0.002,-0.068 L 0.079,0.012 c 0,-0.00666667 -0.0066667,-0.01 -0.02,-0.01 -0.012,0 -0.024,0.00266667 -0.036,0.008 -0.012,0.0053333 -0.018,0.012 -0.018,0.02 0,0.01066667 3.3333e-4,0.02 0.001,0.028 l 0.001,0.061 v 0.53500007 c 0,0.004 -0.00133333,0.0103333 -0.004,0.019 -0.002,0.008667 -0.003,0.0146666 -0.003,0.018 0,0.002667 3.3333153e-4,0.004333 9.999946e-4,0.005 0.002666665,0.006667 0.0103333354,0.0123332 0.0230000054,0.017 0.01266667,0.005333 0.02466667,0.008 0.036,0.008 0.004,0 0.007,-3.333e-4 0.009,-0.001 0.004,-6.6662e-4 0.0073333,-0.002667 0.01,-0.006 0.0026667,-0.002667 0.005,-0.006 0.007,-0.01 0.0026667,-0.004 0.0046667,-0.007 0.006,-0.009 C 0.22600001,0.46966673 0.35100005,0.277 0.46700005,0.117 Z"
               id="path26" />
          </symbol>
          <symbol
             id="font_5_57">
            <path
               d="m 0.093,0.44200004 c -0.01266667,0 -0.02633333,-6.6665e-4 -0.041,-0.002 -0.008,-0.001333 -0.01466666,-0.002 -0.02,-0.002 H 0.031 c -0.0086667,3e-8 -0.016,0.004667 -0.022,0.014 -0.006,0.01 -0.009,0.0196667 -0.009,0.029 0,0.009333 0.00366667,0.014 0.011,0.014 h 0.08700001 v 0.051 l -0.002,0.10700008 c 0,0.006667 0.0066667,0.01 0.02,0.01 0.012,0 0.0236667,-0.002667 0.035,-0.008 0.0113334,-0.005333 0.017,-0.012 0.017,-0.02 10e-9,-0.014 -3.3334e-4,-0.0260001 -0.001,-0.036 L 0.16600001,0.546 V 0.498 l 0.028,0.001 c 0.0186667,0.001333 0.0343334,0.002333 0.047,0.003 0.0133334,0.001333 0.023,0.002333 0.029,0.003 H 0.271 c 0.008,0 0.0153333,-0.005 0.022,-0.0149999 0.006667,-0.009333 0.01,-0.0186667 0.01,-0.028 0,-0.01 -0.004,-0.015 -0.012,-0.015 -0.04,0 -0.0686666,-3.3331e-4 -0.086,-9.9999e-4 l -0.039,-0.001 V 0.126 C 0.166,0.1073333 0.167,0.09366667 0.169,0.085 0.171,0.077 0.174333,0.07133334 0.179,0.068 0.184333,0.0653333 0.192,0.064 0.202,0.064 c 0.012,0 0.0263334,0.0036667 0.043,0.011 0.0173333,0.0073333 0.034,0.01733334 0.05,0.03000001 0.0113333,0.008667 0.0203333,0.013 0.027,0.013 0.006667,0 0.01,-0.003667 0.01,-0.011 0,-0.0086667 -0.007667,-0.022 -0.023,-0.04 C 0.29433335,0.04966667 0.27633334,0.034 0.255,0.02 0.23366666,0.00666667 0.213,0 0.193,0 0.159,0 0.1346667,0.01033333 0.12,0.031 0.1053333,0.05166667 0.098,0.08400002 0.098,0.128 v 0.31400004 z"
               id="path27" />
          </symbol>
          <symbol
             id="font_5_56">
            <path
               d="m 0.136,0.26000003 c -0.03799999,0.008667 -0.06633332,0.022 -0.085,0.04 -0.018,0.0186667 -0.027,0.0433333 -0.027,0.074 0,0.0253334 0.0083333,0.0476667 0.025,0.067 0.01666667,0.02 0.039,0.0353334 0.06700001,0.046 0.028,0.0113333 0.0583333,0.017 0.091,0.017 0.0366667,0 0.0673333,-0.005333 0.092,-0.0159999 0.0253334,-0.01 0.048,-0.0256667 0.068,-0.0470001 0.001333,-0.001333 0.002,-0.004333 0.002,-0.009 3e-8,-0.009333 -0.003667,-0.0193334 -0.011,-0.0300001 -0.006667,-0.01 -0.0136667,-0.015 -0.021,-0.015 -0.002667,-3e-8 -0.005333,9.9997e-4 -0.008,0.003 -0.002667,0.002667 -0.005333,0.006 -0.008,0.01 -0.0126666,0.02 -0.03,0.033 -0.052,0.039 -0.0213333,0.006667 -0.042,0.01 -0.062,0.01 -0.0373333,0 -0.0663333,-0.007333 -0.087,-0.022 -0.02066667,-0.014 -0.031,-0.0323333 -0.03100001,-0.055 1e-8,-0.0146667 0.0046667,-0.0266667 0.014,-0.036 0.01,-0.008667 0.028,-0.016 0.054,-0.022 L 0.253,0.291 C 0.2983333,0.2803333 0.333,0.2633334 0.357,0.24 0.381,0.2173333 0.393,0.186 0.393,0.146 0.393,0.1193333 0.385,0.09466665 0.369,0.07199999 0.3536667,0.05 0.33133338,0.03233334 0.30200003,0.019 0.27266667,0.00633333 0.23900001,0 0.20100002,0 c -0.046,0 -0.084,0.007 -0.11400001,0.021 C 0.057,0.035 0.035,0.05033334 0.021,0.067 0.007,0.08366666 0,0.09566667 0,0.103 0,0.113 0.00466667,0.1233333 0.014,0.134 0.0233333,0.1453333 0.032,0.151 0.04,0.151 0.0446667,0.151 0.048,0.148667 0.05,0.144 0.06066667,0.118 0.07633334,0.097 0.097,0.081 0.11833334,0.06566667 0.15300001,0.05800001 0.20100002,0.05800001 c 0.0386667,0 0.0693333,0.0083333 0.092,0.025 0.0226667,0.01666667 0.034,0.037 0.034,0.061 0,0.0246667 -0.006333,0.044 -0.019,0.058 -0.0126666,0.014 -0.0366667,0.0253333 -0.072,0.034 z"
               id="path28" />
          </symbol>
          <use
             xlink:href="#font_5_3b"
             transform="matrix(38.875,0,0,-38.875,117.90521,221.43283)"
             fill="#333333"
             id="use28" />
          <use
             xlink:href="#font_5_4c"
             transform="matrix(38.875,0,0,-38.875,146.04679,221.31621)"
             fill="#333333"
             id="use29" />
          <use
             xlink:href="#font_5_44"
             transform="matrix(38.875,0,0,-38.875,157.31925,221.62722)"
             fill="#333333"
             id="use30" />
          <use
             xlink:href="#font_5_52"
             transform="matrix(38.875,0,0,-38.875,181.69011,221.62722)"
             fill="#333333"
             id="use31" />
          <use
             xlink:href="#font_5_2b"
             transform="matrix(38.875,0,0,-38.875,205.94448,221.35509)"
             fill="#333333"
             id="use32" />
          <use
             xlink:href="#font_5_58"
             transform="matrix(38.875,0,0,-38.875,236.06787,221.62722)"
             fill="#333333"
             id="use33" />
          <use
             xlink:href="#font_5_3"
             transform="matrix(38.875,0,0,-38.875,257.5619,220.92746)"
             fill="#333333"
             id="use34" />
          <use
             xlink:href="#font_5_37"
             transform="matrix(38.875,0,0,-38.875,273.53758,221.35509)"
             fill="#333333"
             id="use35" />
          <use
             xlink:href="#font_5_55"
             transform="matrix(38.875,0,0,-38.875,301.17393,221.31621)"
             fill="#333333"
             id="use36" />
          <use
             xlink:href="#font_5_44"
             transform="matrix(38.875,0,0,-38.875,318.54847,221.62722)"
             fill="#333333"
             id="use37" />
          <use
             xlink:href="#font_5_59"
             transform="matrix(38.875,0,0,-38.875,341.8697,221.62722)"
             fill="#333333"
             id="use38" />
          <use
             xlink:href="#font_5_48"
             transform="matrix(38.875,0,0,-38.875,363.40339,221.62722)"
             fill="#333333"
             id="use39" />
          <use
             xlink:href="#font_5_4f"
             transform="matrix(38.875,0,0,-38.875,388.59086,221.35509)"
             fill="#333333"
             id="use40" />
          <use
             xlink:href="#font_5_3"
             transform="matrix(38.875,0,0,-38.875,397.18095,220.92746)"
             fill="#333333"
             id="use41" />
          <use
             xlink:href="#font_5_31"
             transform="matrix(38.875,0,0,-38.875,416.65534,221.43283)"
             fill="#333333"
             id="use42" />
          <use
             xlink:href="#font_5_52"
             transform="matrix(38.875,0,0,-38.875,445.6899,221.62722)"
             fill="#333333"
             id="use43" />
          <use
             xlink:href="#font_5_57"
             transform="matrix(38.875,0,0,-38.875,467.96165,221.62722)"
             fill="#333333"
             id="use44" />
          <use
             xlink:href="#font_5_48"
             transform="matrix(38.875,0,0,-38.875,484.98683,221.62722)"
             fill="#333333"
             id="use45" />
          <use
             xlink:href="#font_5_56"
             transform="matrix(38.875,0,0,-38.875,508.8137,221.62722)"
             fill="#333333"
             id="use46" />
        </g>
      </g>
      <clipPath
         id="cp6">
        <path
           transform="scale(0.6666666)"
           d="M 0,0 H 968.75 V 365.625 H 0 Z"
           id="path47" />
      </clipPath>
      <g
         clip-path="url(#cp6)"
         id="g54">
        <clipPath
           id="cp7">
          <path
             transform="scale(0.6666666)"
             d="M 0,0 H 968.75 V 365.625 H 0 Z"
             id="path48" />
        </clipPath>
        <g
           clip-path="url(#cp7)"
           id="g53">
          <clipPath
             id="cp8">
            <path
               transform="scale(0.6666666)"
               d="m 404.1954,160.00666 h 17.91017 V 175.1983 H 404.1954 Z"
               id="path49" />
          </clipPath>
          <g
             clip-path="url(#cp8)"
             id="g52">
            <clipPath
               id="cp9">
              <path
                 transform="scale(0.6666666)"
                 d="m 422.0494,165.52057 c -8.125,12.5 -15.3125,10.3125 -17.1875,7.5 -1.5625,-2.5 0,-10.3125 2.5,-12.1875 2.1875,-1.875 12.1875,0.625 12.1875,0.625"
                 id="path50" />
            </clipPath>
            <g
               clip-path="url(#cp9)"
               id="g51">
              <path
                 transform="matrix(0.10660807,0,0,0.10660807,261.5746,98.88871)"
                 d="M 0,0 H 264 V 256 H 0 Z"
                 fill="#1e1e1e"
                 id="path51" />
            </g>
          </g>
        </g>
      </g>
      <g
         id="g55"
         data-name="Image">
        <path
           transform="matrix(2.7777777,0,0,-2.7777777,0,264)"
           d="m 94.16686,49.615068 h 10.125 v 9.825001 h -10.125 z"
           fill-opacity="0"
           id="path54" />
      </g>
      <g
         id="g56"
         data-name="Image">
        <path
           transform="matrix(2.7777777,0,0,-2.7777777,0,264)"
           d="m 0,20.783699 h 31.916859 v 0.75 H 0 Z"
           fill-opacity="0"
           id="path55" />
      </g>
      <g
         id="g57"
         data-name="Image">
        <path
           transform="matrix(2.7777777,0,0,-2.7777777,0,264)"
           d="m 199.91686,19.256114 h 31.91685 v 0.75 h -31.91685 z"
           fill-opacity="0"
           id="path56" />
      </g>
    </g>
  </g>
</svg>
